<?xml version="1.0" encoding="UTF-8" standalone="no"?>
<!DOCTYPE svg PUBLIC "-//W3C//DTD SVG 1.1//EN" "http://www.w3.org/Graphics/SVG/1.1/DTD/svg11.dtd">
<!-- Created with Vectornator (http://vectornator.io/) -->
<svg height="100%" stroke-miterlimit="10" style="fill-rule:nonzero;clip-rule:evenodd;stroke-linecap:round;stroke-linejoin:round;" version="1.1" viewBox="0 0 1920 1080" width="100%" xml:space="preserve" xmlns="http://www.w3.org/2000/svg" xmlns:vectornator="http://vectornator.io" xmlns:xlink="http://www.w3.org/1999/xlink">
<defs/>
<clipPath id="ArtboardFrame">
<rect height="1080" width="1920" x="0" y="0"/>
</clipPath>
<g clip-path="url(#ArtboardFrame)" id="Layer-3" vectornator:layerName="Layer 3">
<path d="M-16.7572-37.8241L1939.69-37.8241L1939.69 1104.79L-16.7572 1104.79L-16.7572-37.8241Z" fill="#203551" fill-rule="nonzero" opacity="0" stroke="none"/>
</g>
<g clip-path="url(#ArtboardFrame)" id="Layer-1" vectornator:layerName="Layer 1">
<g opacity="1">
<path d="M2048.92 328.884C2023.12 325.279 1869.76 278.001 1843.88 279.177C1797.22 281.298 1748.66 284.61 1704.6 301.401C1675.62 312.444 1650.69 330.161 1623.13 343.907C1604.55 353.174 1585.12 358.774 1564.92 363.394C1537.21 369.732 1508.52 371.806 1480.15 370.798C1453.37 369.846 1425.41 367.129 1398.63 369.44C1372.31 371.711 1345.57 376.437 1319.95 382.885C1276.18 393.898 1231.9 407.622 1190.9 426.555C1160.21 440.721 1129.98 458.458 1100.56 475.103C1083.87 484.544 1070.21 497.215 1054.45 507.849C1035.56 520.597 1015.76 532.752 995.786 543.738C939.929 574.465 901.817 597.743 817.486 619.515C790.059 626.595 776.347 656.409 761.048 680.789C755.725 689.27 755.246 699.891 750.818 708.847C738.731 733.294 722.068 761.724 702.833 781.193C680.704 803.59 652.398 818.905 628.359 839.094C619.962 846.147 611.001 852.353 605.961 862.486C600.072 874.329 596.93 886.529 592.943 898.943C590.965 905.102 586.15 910.435 584.529 916.674C583.592 920.278 585.412 924.294 585.04 927.978C584.563 932.709 582.534 938.175 581.288 942.803C578.916 951.608 574.282 959.655 571.511 968.339C570.8 970.567 568.133 981.341 571.511 982.762C574.903 984.189 619.595 1051.73 618.971 1051.73" fill="#1c3b62" fill-rule="nonzero" opacity="1" stroke="none"/>
<path d="M-23.6407 402.08C-23.6407 405.16-17.4306 405.056-14.3161 406.361C-1.68758 411.656 12.1245 414.973 25.7067 418.453C49.6283 424.582 73.4614 431.251 97.4516 436.967C131.939 445.183 164.919 455.48 200.859 455.48C216.144 455.48 231.233 452.776 246.454 451.601C266.293 450.069 286.214 448.949 306.091 448.081C327.643 447.14 349.679 445.564 370.39 452.959C388.122 459.291 401.085 473.354 414.618 485.705C426.834 496.855 440.99 505.127 454.188 514.952C470.106 526.801 486.746 541.187 506.374 546.149C533.86 553.099 563.708 548.55 591.59 547.317C609.417 546.529 627.775 544.323 645.599 544.986C664.198 545.678 684.315 549.563 702.393 553.934C730.678 560.773 757.696 569.967 784.825 580.469C800.899 586.692 817.176 606.643 834.438 610.376C859.07 615.703 842.534 635.655 844.008 649.481C845.382 662.364 843.14 677.572 837.472 689.246C833.565 697.291 825.802 704.386 824.45 713.615C823.161 722.41 825.148 730.412 824.45 739.152C824.158 742.796 823.094 746.134 823.485 749.86C825.22 766.396 828.175 778.914 821.666 795.099C816.729 807.375 807.004 814.915 798.359 824.35C790.295 833.15 781.824 841.434 773.228 849.692C760.16 862.249 751.043 874.289 733.603 881.085C717.707 887.278 699.979 887.371 683.35 890.033C673.957 891.536 664.64 894.495 655.377 896.671C592.737 911.381 529.812 922.782 465.844 930.203C438.938 933.325 411.75 934.431 384.774 937.032C342.143 941.142 300.152 949.403 257.657 953.976C235.503 956.36 213.167 957.328 191.082 960.424C160.816 964.666 130.542 969.222 100.235 973.086C70.5074 976.876 38.9228 975.853 8.99106 975.037C-11.3846 974.481-31.8317 973.29-52.067 970.755C-54.7877 970.414-68.3258 969.289-68.3258 968.208" fill="#1c3b62" fill-rule="nonzero" opacity="1" stroke="none"/>
</g>
<g opacity="1">
<path d="M1936.45 311.538C1935.42 311.155 1927.37 312.134 1924.8 312.134C1913.22 312.134 1900.47 311.923 1888.93 310.751C1864.18 308.238 1836.56 306.995 1812.06 312.134C1779.61 318.943 1751.51 335.642 1720.82 347.211C1690.84 358.511 1657.52 362.387 1625.76 364.558C1603.6 366.072 1579.41 366.034 1558.74 375.291C1532.89 386.868 1506.03 397.9 1482.33 413.702C1466.08 424.534 1453.5 440.332 1436.74 450.543C1422.41 459.268 1403.36 466.216 1387.33 471.007C1369.45 476.354 1351.11 474.86 1332.87 477.243C1317.24 479.286 1301.96 483.364 1286.31 485.43C1240.54 491.473 1195.32 498.127 1153.56 518.958C1140.39 525.529 1125.24 536.567 1116.27 548.4C1108.95 558.056 1103.8 569.185 1096.71 579.027C1092.27 585.188 1086.5 590.307 1082.27 596.567C1078.99 601.424 1077.93 606.784 1075.34 611.963C1070.69 621.262 1063.25 629.149 1054.36 634.572C1037.15 645.061 1016.39 648.276 997.051 652.705C966.195 659.772 934.483 664.527 903.933 672.788C891.403 676.176 879.426 681.502 867.151 685.667C851.464 690.988 834.24 695.698 820.079 704.561C798.209 718.25 794.706 741.653 779.6 760.724C766.794 776.889 748.501 784.285 731.16 794.965C706.66 810.054 684.599 824.592 659.417 838.684C644.892 846.812 629.599 853.867 616.551 864.437C604.164 874.471 588.589 895.531 581.647 910.057C578.422 916.806 578.402 924.678 576.075 931.688C573.334 939.946 569.251 948.309 568.117 957.031C567.201 964.079 569.073 973.546 566.751 980.236C558.015 1005.4 553.122 1044.59 558.848 1071.48C559.908 1076.45 565.185 1083.21 568.117 1087.25C575.505 1097.44 590.893 1097.69 602.111 1098.96C618.629 1100.84 634.935 1104.97 651.514 1106.74C671.133 1108.84 691.56 1111.91 710.638 1115.91C714.912 1116.8 710.908 1114.25 715.758 1113.58C728.318 1111.82 741.219 1111.42 753.961 1110.84C786.916 1109.35 820.334 1108.83 853.164 1105.39C863.775 1104.28 874.191 1102.3 884.831 1101.49C915.036 1099.16 945.373 1098.47 975.623 1096.04C996.886 1094.32 1018.17 1091.51 1039.46 1090.37C1070.92 1088.7 1102.87 1089.02 1134 1083.54C1150.56 1080.63 1167.83 1076.85 1183.81 1071.67C1187.94 1070.33 1213.5 1066.98 1203.88 1066.98" fill="#162b46" fill-rule="nonzero" opacity="1" stroke="none"/>
<path d="M-241.401 489.411C-241.401 492.512-231.013 494.97-228.328 495.643C-213.16 499.442-201.894 504.807-185.517 504.807C-165.066 504.807-145.162 499.827-124.971 497.597C-111.996 496.165-98.826 496.475-85.8029 495.833C-50.9512 494.117-16.459 493.448 18.0068 499.738C34.2585 502.704 48.4611 510.034 58.5415 523.13C68.0291 535.455 70.2114 552.907 87.8775 556.282C115.887 561.634 145.748 558.331 174.062 557.826C209.759 557.19 248.759 558.05 283.494 567.396C306.974 573.714 331.062 583.884 350.522 598.594C366.763 610.87 373.893 627.459 395.262 632.507C409.694 635.917 424.77 635.294 439.494 635.816C474.293 637.049 514.763 639.165 544.781 658.827C558.86 668.049 575.2 677.079 587.587 688.455C601.207 700.962 613.077 715.541 627.212 727.458C639.562 737.869 657.067 738.948 670.023 748.117C694.75 765.616 694.107 769.327 715.457 789.692C732.6 806.044 759.732 774.441 760.058 778.789C760.844 789.288 786.13 811.054 778.339 819.235C773.441 824.378 769.38 863.191 772.873 871.633C775.099 877.014 690.067 901.749 694.697 903.685C705.489 908.199 716.043 914.263 725.45 921.222C750.654 939.865 775.302 971.177 780.881 1002.52C781.398 1005.42 783.951 1007.89 784.575 1011.11C786.43 1020.66 782.297 1028.81 778.55 1037.24C771.078 1054.04 761.543 1066.03 750.581 1080.69C728.754 1109.89 705.233 1148.65 674.229 1168.63C649.379 1184.64 618.367 1188.56 590.375 1195.52C573.016 1199.83 555.465 1203.61 538.244 1208.39C533.17 1209.8 521.438 1211.95 518.685 1210.72" fill="#162b46" fill-rule="nonzero" opacity="1" stroke="none"/>
</g>
<path d="M-79.1818 658.361C-88.9591 657.187-98.8015 656.465-108.514 654.837C-112.625 654.148-124.495 650.165-120.626 651.719" fill="#531f67" fill-rule="nonzero" opacity="1" stroke="none"/>
<g opacity="1">
<path d="M907.853 750.007L1042.6 750.007L1042.6 811.923L907.853 811.923L907.853 750.007Z" fill="#ff59a0" fill-rule="nonzero" opacity="1" stroke="none"/>
<path d="M899.656 751.314L969.929 751.314L969.929 812.525L899.656 812.525L899.656 751.314Z" fill="#ff92e2" fill-rule="nonzero" opacity="1" stroke="none"/>
<path d="M935.438 700.988L970.308 752.103L899.689 751.681L935.438 700.988Z" fill="#ff92e2" fill-rule="nonzero" opacity="1" stroke="none"/>
<path d="M934.918 700.829L1015.62 707.959L1044.99 752.357L969.19 752.144L934.918 700.829Z" fill="#f50057" fill-rule="nonzero" opacity="1" stroke="none"/>
<path d="M923.108 763.917L944.049 763.917L944.049 812.982L923.108 812.982L923.108 763.917Z" fill="#ffc7ff" fill-rule="nonzero" opacity="1" stroke="none"/>
<path d="M923.429 734.839C923.429 734.839 926.724 725.713 933.71 725.976C941.814 726.282 943.296 734.839 943.296 734.839L943.296 753.686L923.429 753.686L923.429 734.839Z" fill="#ffc7ff" fill-rule="nonzero" opacity="1" stroke="none"/>
</g>
<g opacity="1">
<path d="M-53.5055 599.271C-53.5055 596.689-39.8777 596.746-34.8606 596.157C-16.44 593.993 5.0492 595.874 22.9017 600.844C39.9869 605.601 56.4138 616.03 64.7988 632.207C71.3483 644.842 74.9545 660.912 86.6886 670.237C108.735 687.758 151.855 695.034 179.355 698.511C228.72 704.752 280.022 704.194 327.964 719.356C346.34 725.168 362.46 735.513 379.185 744.702C388.994 750.092 399.396 753.842 408.517 760.504C422.896 771.007 439.931 782.589 450.867 796.77C456.779 804.436 463.152 814.261 467.185 823.068C471.513 832.522 473.987 844.017 480.715 852.125C487.457 860.251 497.73 864.7 507.262 868.689C529.684 878.07 552.713 880.96 576.169 886.631C603.144 893.153 629.658 902.183 655.817 911.381C671.726 916.975 689.016 925.158 701.134 924.533C735.163 922.776 756.538 913.814 762.512 909.723C796.503 886.447 803.854 921.479 807.891 929.51C821.05 955.691 718.471 1043.39 707.038 1067.74C702.014 1078.44 699.791 1090.1 694.473 1100.69C687.165 1115.25 675.084 1126.94 664.625 1138.89C657.513 1147.01 654.553 1159.05 645.07 1164.64C643.53 1165.55 640.512 1170.53 639.499 1172.04C636.286 1176.84 628.289 1183.56 623.181 1185.7C606.377 1192.74 587.878 1195.41 570.14 1199.34C552.873 1203.16 535.451 1206.66 517.954 1209.28C493.874 1212.89 468.008 1215.96 444.842 1223.9C415.814 1233.85 383.642 1236.43 353.09 1241.05C304.011 1248.48 252.229 1253.25 202.662 1247.7C190.272 1246.31 177.851 1246.99 165.427 1246.13C130.43 1243.68 95.2184 1238.7 60.1365 1237.94C38.1627 1237.46 16.0041 1238.73-5.97731 1239.29C-18.149 1239.61-30.7009 1241-42.7594 1242.22C-55.0073 1243.46-67.7821 1241.05-80.0534 1241.05C-89.8953 1241.05-103.777 1243.45-113.087 1239.29" fill="#111e30" fill-rule="nonzero" opacity="1" stroke="none"/>
<path d="M1975.41 435.422C1976.81 435.194 1979.62 436.266 1979.62 434.851C1979.62 434.015 1969.84 433.356 1968.88 433.282C1957.26 432.377 1945.6 432.075 1933.97 431.331C1903.47 429.38 1873.39 431.94 1843.58 438.947C1820.52 444.368 1799.36 454.058 1778.43 465.076C1757.44 476.12 1739.03 490.32 1716.92 499.582C1679.72 515.159 1635.82 520.462 1595.82 522C1545.01 523.954 1494.42 521.412 1444.03 529.996C1398.43 537.765 1356.66 554.367 1314.07 571.716C1299.58 577.622 1284.72 582.906 1270.75 590.039C1254.36 598.41 1239.97 609.937 1224.19 619.265C1213.99 625.294 1202.82 629.737 1192.98 636.421C1164.09 656.047 1154.38 687.406 1136.19 715.383C1122.31 736.725 1104.29 754.311 1081.67 766.262C1026.83 795.234 961.052 782.113 902.359 796.677C871.394 804.361 846.456 825.039 824.589 847.175C799.88 872.188 787.678 885.275 742.905 927.196C696.859 970.309 645.394 920.455 629.535 956.232C623.996 968.727 700.564 1064.12 698.89 1077.61C696.872 1093.87 688.463 1107.78 685.817 1123.61C685.497 1125.52 682.254 1137.77 684.45 1139.6C686.436 1141.26 685.582 1146.41 688.601 1148.39C697.246 1154.06 711.601 1152.07 721.232 1152.48C740.171 1153.28 759.099 1153.78 778.026 1154.81C861.734 1159.38 946.828 1155.64 1030.44 1151.29C1133.41 1145.93 1236.35 1138.11 1338.75 1126.16C1396.53 1119.41 1453.96 1108.79 1512.03 1104.12C1601.23 1096.95 1691.21 1089.96 1780.76 1088.92C1807.76 1088.6 1835.28 1086.84 1862.23 1087.94C1869.87 1088.25 1877.41 1089.73 1885.08 1089.89C1904.75 1090.32 1924.55 1087.95 1944.2 1087.35C1955.03 1087.02 1970.34 1088.53 1979.11 1088.53" fill="#111e30" fill-rule="nonzero" opacity="1" stroke="none"/>
<path d="M1960.22 331.232C1960.22 329.86 1960.24 329.251 1960.67 329.07C1961.13 328.879 1962.53 328.567 1962.04 328.499C1952.15 327.122 1942.13 328.083 1932.25 329.472C1918.26 331.436 1904.28 333.846 1890.35 336.089C1876.31 338.348 1861.12 338.744 1847.94 344.681C1822.08 356.333 1816.07 383.021 1798.13 402.389C1778.33 423.774 1755.43 442.134 1734.35 462.241C1726.25 469.965 1719.66 478.794 1711.04 486.014C1704.91 491.144 1698.55 496.145 1691.94 500.627C1681.53 507.683 1662.24 515.874 1659.37 530.064C1655.97 546.855 1654.51 565.538 1656.07 582.898C1656.3 585.558 1655.45 588.707 1656.07 591.296C1657.43 597.066 1658.85 602.863 1658.85 609.027C1658.85 614.395 1660.49 621.842 1659.37 626.969C1658.44 631.17 1655.7 637.963 1657.49 642.56C1658.26 644.548 1660.97 646.863 1662.15 648.601C1668.85 658.455 1674.6 665.864 1683.58 674.328C1689.66 680.058 1694.84 686.959 1700.81 692.867C1711.15 703.121 1723.56 711.169 1734.35 720.926C1749.65 734.763 1765.49 749.273 1779.94 764.024C1787.48 771.72 1793.84 780.582 1801.37 788.203C1810.46 797.391 1815.54 809.885 1824.23 819.375C1832.17 828.055 1842.19 836.051 1849.36 845.318C1851.85 848.535 1852.01 853.371 1854.47 856.622" fill="#111e30" fill-rule="nonzero" opacity="1" stroke="none"/>
</g>
<g opacity="1">
<path d="M-85.291 694.369C-85.7903 694.161-87.2196 693.775-86.7126 693.587C-85.0404 692.965-82.882 693.836-81.0857 693.206C-77.1444 691.822-74.7916 689.041-70.3988 688.324C-66.0152 687.607-59.8093 691.251-54.5378 691.251C-32.0438 691.251-15.0921 700.179 4.13417 710.742C32.5879 726.376 56.5496 749.217 87.0229 761.24C114.836 772.214 148.34 773.332 177.87 773.332C197.752 773.332 217.54 769.952 237.447 769.427C286.538 768.132 335.659 770.834 380.882 790.872C390.047 794.934 399.211 798.757 406.977 805.291C426.116 821.392 438.958 849.258 445.176 873.139C450.368 893.075 452.594 915.443 474.055 924.424C497.465 934.221 527.048 932.125 551.829 933.182C568.966 933.913 585.732 937.518 602.594 940.391C613.735 942.289 625.121 942.739 636.08 945.654C685.429 958.783 765.094 1020.36 811.474 1046.29C823.104 1052.79 724.499 1064.46 722.721 1076.28C720.981 1087.85 717.871 1097.51 712.487 1107.86C700.73 1130.47 676.98 1154.36 651.032 1159.71C633.335 1163.36 614.474 1164.04 596.51 1165.38C571.518 1167.24 546.483 1169.17 521.524 1171.42C467.53 1176.29 412.74 1181.49 358.539 1182.73C274.406 1184.64 190.242 1180.69 106.125 1179.42C64.4346 1178.79 22.8096 1174.21-18.6653 1170.83C-30.8687 1169.83-42.0289 1169.66-54.5378 1169.66C-57.9403 1169.66-64.6881 1170.88-68.0677 1169.47" fill="#11171a" fill-rule="nonzero" opacity="1" stroke="none"/>
<path d="M1947.1 407.914C1942.7 400.576 1927.19 402.297 1920.55 402.655C1908.1 403.327 1893.85 404.036 1881.89 407.533C1870.76 410.792 1858.45 417.197 1847.44 421.575C1833.54 427.105 1829.53 438.788 1821.35 449.845C1812.08 462.368 1803.72 475.504 1792.47 486.496C1777.53 501.087 1760.5 512.6 1744.03 525.283C1707.42 553.479 1678.73 573.253 1631.81 581.045C1606.22 585.293 1579.92 584.747 1554.49 590.014C1509.74 599.283 1465.58 618.004 1425.95 640.11C1410.33 648.824 1404 660.055 1390.28 671.912C1378.04 682.49 1363.39 695.812 1353.3 709.316C1341.98 724.458 1329.58 738.695 1314.07 747.545C1279.31 767.374 1263.83 776.981 1225.67 784.184C1191.86 790.566 1161.88 804.073 1130.21 816.739C1099.81 828.902 1094.19 852.901 1068.09 874.032C1055.01 884.628 1052.52 882.705 1033.42 896.176C1020.24 905.472 998.423 922.44 988.133 935.945C974.113 954.344 961.548 966.572 940.677 973.877C920.524 980.932 901.643 990.351 886.667 1005.65C877.469 1015.04 869.584 1023.84 868.018 1037.22C866.024 1054.27 884.492 1063.62 895.932 1071.73C927.532 1094.16 978.236 1097.85 1015.66 1104.29C1078.21 1115.05 1143.18 1116.61 1206.57 1114.62C1215.62 1114.33 1224.55 1112.83 1233.63 1112.67C1270.52 1112 1307.57 1113.56 1344.43 1112.1C1405.82 1109.66 1466.89 1108.38 1528.39 1108.38C1547.37 1108.38 1566.3 1109.46 1585.25 1110.33C1599.88 1111.01 1618.42 1114.71 1633.17 1111.69C1653.45 1107.54 1675.41 1108.79 1696.05 1106.43C1742.05 1101.18 1787.57 1094.67 1833.91 1092.39C1863.26 1090.94 1892.55 1091.04 1921.92 1091.04C1936.74 1091.04 1956.07 1092.93 1969.9 1087.13" fill="#11171a" fill-rule="nonzero" opacity="1" stroke="none"/>
<path d="M471.187 1119.22C471.187 1128.27 485.965 1111.93 487.048 1110.82C500.409 1097.2 506.946 1081.98 516.384 1065.8C525.939 1049.41 539.827 1041.27 554.076 1029.53C565.573 1020.05 575.366 1008.59 587.16 999.52C595.884 992.812 606.79 988.513 616.949 984.505C632.323 978.439 651.785 972.025 668.627 973.987C718.802 979.833 765.389 1010.42 816.72 1007.71C850.833 1005.9 881.632 982.613 909.898 965.801C932.569 952.316 949.312 936.275 974.696 928.977C990.321 924.484 1018.46 913.672 1034.57 912.003C1076.5 907.656 1120.27 922.916 1161.41 932.839C1172.59 935.536 1183.14 940.033 1193.98 943.763C1207.63 948.458 1221.89 951.181 1235.43 956.231C1258.71 964.919 1281.72 974.213 1305.29 982.174C1351.25 997.694 1397.61 1012.11 1444.07 1026.03C1460.96 1031.09 1478.14 1034.64 1494.84 1040.45C1507.59 1044.89 1521.85 1051.08 1533.49 1058.2C1541.23 1062.94 1548.14 1069.15 1556.29 1073.2C1564.43 1077.25 1573.4 1080.2 1581.93 1083.34C1587.88 1085.52 1596.62 1090.95 1602.91 1090.95" fill="#11171a" fill-rule="nonzero" opacity="1" stroke="none"/>
</g>
</g>
<g id="Layer-2" vectornator:layerName="Layer 2">
<g opacity="1">
<g opacity="1">
<path d="M187.55 752.116L221.36 752.116L221.36 921.375L187.55 921.375L187.55 752.116Z" fill="#161b1f" fill-rule="nonzero" opacity="1" stroke="none"/>
<path d="M205.802 764.708L271.319 878.186L140.286 878.186L205.802 764.708Z" fill="#161b1f" fill-rule="nonzero" opacity="1" stroke="none"/>
<path d="M204.825 728.616L254.287 814.286L263.814 830.787L145.837 830.787L204.825 728.616Z" fill="#161b1f" fill-rule="nonzero" opacity="1" stroke="none"/>
<path d="M203.894 701.295L245.723 773.745L162.065 773.745L203.894 701.295Z" fill="#161b1f" fill-rule="nonzero" opacity="1" stroke="none"/>
</g>
<g opacity="1">
<path d="M1284.73 697.77L1306.39 697.77L1306.39 806.19L1284.73 806.19L1284.73 697.77Z" fill="#161b1f" fill-rule="nonzero" opacity="1" stroke="none"/>
<path d="M1296.42 705.836L1338.39 778.525L1254.46 778.525L1296.42 705.836Z" fill="#161b1f" fill-rule="nonzero" opacity="1" stroke="none"/>
<path d="M1295.8 682.717L1327.48 737.593L1333.58 748.163L1258.01 748.163L1295.8 682.717Z" fill="#161b1f" fill-rule="nonzero" opacity="1" stroke="none"/>
<path d="M1295.2 665.216L1321.99 711.625L1268.41 711.625L1295.2 665.216Z" fill="#161b1f" fill-rule="nonzero" opacity="1" stroke="none"/>
</g>
</g>
<g opacity="1">
<g opacity="1">
<path d="M526.356 814.712L542.178 814.712L542.178 893.92L526.356 893.92L526.356 814.712Z" fill="#18242c" fill-rule="nonzero" opacity="1" stroke="none"/>
<path d="M534.897 820.605L565.557 873.709L504.238 873.709L534.897 820.605Z" fill="#18242c" fill-rule="nonzero" opacity="1" stroke="none"/>
<path d="M534.44 803.715L557.586 843.806L562.045 851.528L506.835 851.528L534.44 803.715Z" fill="#18242c" fill-rule="nonzero" opacity="1" stroke="none"/>
<path d="M534.004 790.93L553.579 824.834L514.43 824.834L534.004 790.93Z" fill="#18242c" fill-rule="nonzero" opacity="1" stroke="none"/>
</g>
<g opacity="1">
<path d="M1061.98 739.807L1073.54 739.807L1073.54 797.689L1061.98 797.689L1061.98 739.807Z" fill="#18242c" fill-rule="nonzero" opacity="1" stroke="none"/>
<path d="M1068.22 744.113L1090.63 782.919L1045.82 782.919L1068.22 744.113Z" fill="#18242c" fill-rule="nonzero" opacity="1" stroke="none"/>
<path d="M1067.89 731.771L1084.8 761.067L1088.06 766.71L1047.72 766.71L1067.89 731.771Z" fill="#18242c" fill-rule="nonzero" opacity="1" stroke="none"/>
<path d="M1067.57 722.428L1081.87 747.204L1053.27 747.204L1067.57 722.428Z" fill="#18242c" fill-rule="nonzero" opacity="1" stroke="none"/>
</g>
</g>
<g opacity="1">
<g opacity="1">
<path d="M392.752 666.425L401.975 666.425L401.975 712.601L392.752 712.601L392.752 666.425Z" fill="#18232b" fill-rule="nonzero" opacity="1" stroke="none"/>
<path d="M397.731 669.86L415.605 700.819L379.857 700.819L397.731 669.86Z" fill="#18232b" fill-rule="nonzero" opacity="1" stroke="none"/>
<path d="M397.465 660.014L410.958 683.386L413.558 687.887L381.372 687.887L397.465 660.014Z" fill="#18232b" fill-rule="nonzero" opacity="1" stroke="none"/>
<path d="M397.21 652.56L408.622 672.325L385.799 672.325L397.21 652.56Z" fill="#18232b" fill-rule="nonzero" opacity="1" stroke="none"/>
</g>
<g opacity="1">
<path d="M627.893 752.12L637.117 752.12L637.117 798.296L627.893 798.296L627.893 752.12Z" fill="#18232b" fill-rule="nonzero" opacity="1" stroke="none"/>
<path d="M632.873 755.555L650.747 786.514L614.999 786.514L632.873 755.555Z" fill="#18232b" fill-rule="nonzero" opacity="1" stroke="none"/>
<path d="M632.606 745.709L646.1 769.081L648.699 773.582L616.513 773.582L632.606 745.709Z" fill="#18232b" fill-rule="nonzero" opacity="1" stroke="none"/>
<path d="M632.352 738.255L643.764 758.02L620.941 758.02L632.352 738.255Z" fill="#18232b" fill-rule="nonzero" opacity="1" stroke="none"/>
</g>
</g>
<g opacity="1">
<g opacity="1">
<path d="M1127.19 526.05L1136.42 526.05L1136.42 572.226L1127.19 572.226L1127.19 526.05Z" fill="#1b3140" fill-rule="nonzero" opacity="1" stroke="none"/>
<path d="M1132.17 529.485L1150.05 560.444L1114.3 560.444L1132.17 529.485Z" fill="#1b3140" fill-rule="nonzero" opacity="1" stroke="none"/>
<path d="M1131.91 519.639L1145.4 543.011L1148 547.513L1115.81 547.513L1131.91 519.639Z" fill="#1b3140" fill-rule="nonzero" opacity="1" stroke="none"/>
<path d="M1131.65 512.185L1143.06 531.951L1120.24 531.951L1131.65 512.185Z" fill="#1b3140" fill-rule="nonzero" opacity="1" stroke="none"/>
</g>
<g opacity="1">
<path d="M600.855 572.501L608.455 572.501L608.455 610.55L600.855 610.55L600.855 572.501Z" fill="#1b3140" fill-rule="nonzero" opacity="1" stroke="none"/>
<path d="M604.958 575.332L619.686 600.841L590.23 600.841L604.958 575.332Z" fill="#1b3140" fill-rule="nonzero" opacity="1" stroke="none"/>
<path d="M604.738 567.218L615.857 586.477L617.999 590.186L591.478 590.186L604.738 567.218Z" fill="#1b3140" fill-rule="nonzero" opacity="1" stroke="none"/>
<path d="M604.529 561.077L613.932 577.363L595.126 577.363L604.529 561.077Z" fill="#1b3140" fill-rule="nonzero" opacity="1" stroke="none"/>
</g>
<g opacity="1">
<path d="M915.86 600.671L923.461 600.671L923.461 638.719L915.86 638.719L915.86 600.671Z" fill="#1b3140" fill-rule="nonzero" opacity="1" stroke="none"/>
<path d="M919.963 603.501L934.691 629.011L905.236 629.011L919.963 603.501Z" fill="#1b3140" fill-rule="nonzero" opacity="1" stroke="none"/>
<path d="M919.744 595.388L930.863 614.646L933.004 618.356L906.483 618.356L919.744 595.388Z" fill="#1b3140" fill-rule="nonzero" opacity="1" stroke="none"/>
<path d="M919.534 589.246L928.937 605.533L910.131 605.533L919.534 589.246Z" fill="#1b3140" fill-rule="nonzero" opacity="1" stroke="none"/>
</g>
<g opacity="1">
<path d="M395.175 467.665L402.775 467.665L402.775 505.713L395.175 505.713L395.175 467.665Z" fill="#1b3140" fill-rule="nonzero" opacity="1" stroke="none"/>
<path d="M399.278 470.495L414.005 496.005L384.55 496.005L399.278 470.495Z" fill="#1b3140" fill-rule="nonzero" opacity="1" stroke="none"/>
<path d="M399.058 462.382L410.177 481.64L412.318 485.35L385.798 485.35L399.058 462.382Z" fill="#1b3140" fill-rule="nonzero" opacity="1" stroke="none"/>
<path d="M398.849 456.24L408.252 472.527L389.446 472.527L398.849 456.24Z" fill="#1b3140" fill-rule="nonzero" opacity="1" stroke="none"/>
</g>
</g>
</g>
</svg>
